<mxfile host="Electron" modified="2024-07-28T22:06:00.727Z" agent="Mozilla/5.0 (Windows NT 10.0; Win64; x64) AppleWebKit/537.36 (KHTML, like Gecko) draw.io/24.2.5 Chrome/120.0.6099.109 Electron/28.1.0 Safari/537.36" etag="x85o1-YUHMbR4GTmKakR" version="24.2.5" type="device">
  <diagram name="Page-1" id="hf2K5R4qYwI-v_a9iiGS">
    <mxGraphModel dx="1948" dy="1097" grid="1" gridSize="10" guides="1" tooltips="1" connect="1" arrows="1" fold="1" page="1" pageScale="1" pageWidth="850" pageHeight="1100" math="0" shadow="0">
      <root>
        <mxCell id="0" />
        <mxCell id="1" parent="0" />
        <mxCell id="SYvAKUDs2BiALkARFRiU-4" value="" style="sketch=0;points=[[0,0,0],[0.25,0,0],[0.5,0,0],[0.75,0,0],[1,0,0],[0,1,0],[0.25,1,0],[0.5,1,0],[0.75,1,0],[1,1,0],[0,0.25,0],[0,0.5,0],[0,0.75,0],[1,0.25,0],[1,0.5,0],[1,0.75,0]];outlineConnect=0;fontColor=#232F3E;fillColor=#DD344C;strokeColor=#ffffff;dashed=0;verticalLabelPosition=bottom;verticalAlign=top;align=center;html=1;fontSize=12;fontStyle=0;aspect=fixed;shape=mxgraph.aws4.resourceIcon;resIcon=mxgraph.aws4.waf;" parent="1" vertex="1">
          <mxGeometry x="402.5" y="81" width="78" height="78" as="geometry" />
        </mxCell>
        <mxCell id="SYvAKUDs2BiALkARFRiU-5" value="&lt;span style=&quot;font-size: 13.5px;&quot;&gt;Amazon WAF&lt;/span&gt;" style="text;html=1;align=center;verticalAlign=middle;whiteSpace=wrap;rounded=0;fontSize=13.5;fontStyle=1" parent="1" vertex="1">
          <mxGeometry x="380" y="51" width="123" height="30" as="geometry" />
        </mxCell>
        <mxCell id="SYvAKUDs2BiALkARFRiU-6" value="" style="sketch=0;outlineConnect=0;fontColor=#232F3E;gradientColor=none;fillColor=#232F3D;strokeColor=none;dashed=0;verticalLabelPosition=bottom;verticalAlign=top;align=center;html=1;fontSize=12;fontStyle=0;aspect=fixed;pointerEvents=1;shape=mxgraph.aws4.users;" parent="1" vertex="1">
          <mxGeometry x="79.99999999999989" y="81" width="78" height="78" as="geometry" />
        </mxCell>
        <mxCell id="SYvAKUDs2BiALkARFRiU-8" value="&lt;span style=&quot;font-size: 13.5px;&quot;&gt;User&lt;/span&gt;" style="text;html=1;align=center;verticalAlign=middle;whiteSpace=wrap;rounded=0;fontSize=13.5;fontStyle=1" parent="1" vertex="1">
          <mxGeometry x="60" y="55" width="123" height="30" as="geometry" />
        </mxCell>
        <mxCell id="SYvAKUDs2BiALkARFRiU-11" value="" style="endArrow=classic;html=1;rounded=0;" parent="1" edge="1">
          <mxGeometry relative="1" as="geometry">
            <mxPoint x="160" y="120" as="sourcePoint" />
            <mxPoint x="400" y="120" as="targetPoint" />
          </mxGeometry>
        </mxCell>
        <mxCell id="SYvAKUDs2BiALkARFRiU-12" value="&lt;span style=&quot;font-size: 14px; font-weight: 700;&quot;&gt;(1)User send request&lt;/span&gt;" style="edgeLabel;resizable=0;html=1;;align=center;verticalAlign=middle;" parent="SYvAKUDs2BiALkARFRiU-11" connectable="0" vertex="1">
          <mxGeometry relative="1" as="geometry">
            <mxPoint y="-10" as="offset" />
          </mxGeometry>
        </mxCell>
        <mxCell id="SYvAKUDs2BiALkARFRiU-13" value="" style="sketch=0;points=[[0,0,0],[0.25,0,0],[0.5,0,0],[0.75,0,0],[1,0,0],[0,1,0],[0.25,1,0],[0.5,1,0],[0.75,1,0],[1,1,0],[0,0.25,0],[0,0.5,0],[0,0.75,0],[1,0.25,0],[1,0.5,0],[1,0.75,0]];outlineConnect=0;fontColor=#232F3E;fillColor=#E7157B;strokeColor=#ffffff;dashed=0;verticalLabelPosition=bottom;verticalAlign=top;align=center;html=1;fontSize=12;fontStyle=0;aspect=fixed;shape=mxgraph.aws4.resourceIcon;resIcon=mxgraph.aws4.api_gateway;" parent="1" vertex="1">
          <mxGeometry x="721" y="81" width="78" height="78" as="geometry" />
        </mxCell>
        <mxCell id="SYvAKUDs2BiALkARFRiU-14" value="&lt;b style=&quot;&quot;&gt;API gateway&lt;/b&gt;" style="text;whiteSpace=wrap;html=1;align=center;" parent="1" vertex="1">
          <mxGeometry x="700" y="50" width="120" height="40" as="geometry" />
        </mxCell>
        <mxCell id="SYvAKUDs2BiALkARFRiU-15" value="" style="endArrow=classic;html=1;rounded=0;" parent="1" edge="1">
          <mxGeometry relative="1" as="geometry">
            <mxPoint x="480.5" y="119.74" as="sourcePoint" />
            <mxPoint x="720.5" y="119.74" as="targetPoint" />
          </mxGeometry>
        </mxCell>
        <mxCell id="SYvAKUDs2BiALkARFRiU-16" value="&lt;span style=&quot;font-size: 14px; font-weight: 700;&quot;&gt;(2)Checks user request for&amp;nbsp;&lt;/span&gt;&lt;div&gt;&lt;span style=&quot;font-size: 14px; font-weight: 700;&quot;&gt;validity&amp;nbsp;&lt;/span&gt;&lt;span style=&quot;font-size: 14px; font-weight: 700;&quot;&gt;and forward to API gateway&lt;/span&gt;&lt;/div&gt;" style="edgeLabel;resizable=0;html=1;;align=center;verticalAlign=middle;" parent="SYvAKUDs2BiALkARFRiU-15" connectable="0" vertex="1">
          <mxGeometry relative="1" as="geometry">
            <mxPoint y="-20" as="offset" />
          </mxGeometry>
        </mxCell>
        <mxCell id="SYvAKUDs2BiALkARFRiU-17" value="" style="sketch=0;points=[[0,0,0],[0.25,0,0],[0.5,0,0],[0.75,0,0],[1,0,0],[0,1,0],[0.25,1,0],[0.5,1,0],[0.75,1,0],[1,1,0],[0,0.25,0],[0,0.5,0],[0,0.75,0],[1,0.25,0],[1,0.5,0],[1,0.75,0]];outlineConnect=0;fontColor=#232F3E;fillColor=#ED7100;strokeColor=#ffffff;dashed=0;verticalLabelPosition=bottom;verticalAlign=top;align=center;html=1;fontSize=12;fontStyle=0;aspect=fixed;shape=mxgraph.aws4.resourceIcon;resIcon=mxgraph.aws4.lambda;" parent="1" vertex="1">
          <mxGeometry x="1040" y="81" width="78" height="78" as="geometry" />
        </mxCell>
        <mxCell id="SYvAKUDs2BiALkARFRiU-18" value="" style="endArrow=classic;html=1;rounded=0;" parent="1" edge="1">
          <mxGeometry relative="1" as="geometry">
            <mxPoint x="800" y="119.47000000000001" as="sourcePoint" />
            <mxPoint x="1040" y="119.47000000000001" as="targetPoint" />
          </mxGeometry>
        </mxCell>
        <mxCell id="SYvAKUDs2BiALkARFRiU-19" value="&lt;div&gt;&lt;span style=&quot;font-size: 14px; font-weight: 700;&quot;&gt;(3)Triggers UploadMedia&amp;nbsp;&lt;/span&gt;&lt;/div&gt;&lt;div&gt;&lt;span style=&quot;font-size: 14px; font-weight: 700;&quot;&gt;Lamda&amp;nbsp;&amp;nbsp;&lt;/span&gt;&lt;span style=&quot;font-size: 14px; font-weight: 700;&quot;&gt;function&lt;/span&gt;&lt;/div&gt;" style="edgeLabel;resizable=0;html=1;;align=center;verticalAlign=middle;" parent="SYvAKUDs2BiALkARFRiU-18" connectable="0" vertex="1">
          <mxGeometry relative="1" as="geometry">
            <mxPoint y="-20" as="offset" />
          </mxGeometry>
        </mxCell>
        <mxCell id="SYvAKUDs2BiALkARFRiU-20" value="" style="sketch=0;points=[[0,0,0],[0.25,0,0],[0.5,0,0],[0.75,0,0],[1,0,0],[0,1,0],[0.25,1,0],[0.5,1,0],[0.75,1,0],[1,1,0],[0,0.25,0],[0,0.5,0],[0,0.75,0],[1,0.25,0],[1,0.5,0],[1,0.75,0]];outlineConnect=0;fontColor=#232F3E;fillColor=#3334B9;strokeColor=#ffffff;dashed=0;verticalLabelPosition=bottom;verticalAlign=top;align=center;html=1;fontSize=12;fontStyle=0;aspect=fixed;shape=mxgraph.aws4.resourceIcon;resIcon=mxgraph.aws4.dynamodb;gradientColor=#4D72F3;gradientDirection=north;" parent="1" vertex="1">
          <mxGeometry x="1352.5" y="81" width="78" height="78" as="geometry" />
        </mxCell>
        <mxCell id="SYvAKUDs2BiALkARFRiU-21" value="&lt;b&gt;Amazon DynamoDB&lt;/b&gt;" style="text;html=1;align=center;verticalAlign=middle;whiteSpace=wrap;rounded=0;" parent="1" vertex="1">
          <mxGeometry x="1330" y="51" width="123" height="30" as="geometry" />
        </mxCell>
        <mxCell id="SYvAKUDs2BiALkARFRiU-22" value="" style="endArrow=classic;html=1;rounded=0;" parent="1" edge="1">
          <mxGeometry relative="1" as="geometry">
            <mxPoint x="1118" y="119.41000000000003" as="sourcePoint" />
            <mxPoint x="1358" y="119.41000000000003" as="targetPoint" />
          </mxGeometry>
        </mxCell>
        <mxCell id="SYvAKUDs2BiALkARFRiU-23" value="&lt;span style=&quot;font-size: 14px; font-weight: 700;&quot;&gt;(4a)Insert metadata&lt;/span&gt;" style="edgeLabel;resizable=0;html=1;;align=center;verticalAlign=middle;" parent="SYvAKUDs2BiALkARFRiU-22" connectable="0" vertex="1">
          <mxGeometry relative="1" as="geometry">
            <mxPoint y="-10" as="offset" />
          </mxGeometry>
        </mxCell>
        <mxCell id="SYvAKUDs2BiALkARFRiU-24" value="" style="endArrow=classic;html=1;rounded=0;exitX=0.5;exitY=1;exitDx=0;exitDy=0;exitPerimeter=0;" parent="1" source="SYvAKUDs2BiALkARFRiU-17" edge="1">
          <mxGeometry relative="1" as="geometry">
            <mxPoint x="1060" y="270" as="sourcePoint" />
            <mxPoint x="1080" y="360" as="targetPoint" />
          </mxGeometry>
        </mxCell>
        <mxCell id="SYvAKUDs2BiALkARFRiU-25" value="&lt;span style=&quot;font-size: 14px; font-weight: 700;&quot;&gt;(4b)Upload image to S3&lt;/span&gt;" style="edgeLabel;resizable=0;html=1;;align=center;verticalAlign=middle;" parent="SYvAKUDs2BiALkARFRiU-24" connectable="0" vertex="1">
          <mxGeometry relative="1" as="geometry">
            <mxPoint y="-10" as="offset" />
          </mxGeometry>
        </mxCell>
        <mxCell id="SYvAKUDs2BiALkARFRiU-26" value="&lt;b style=&quot;forced-color-adjust: none; color: rgb(0, 0, 0); font-family: Helvetica; font-size: 12px; font-style: normal; font-variant-ligatures: normal; font-variant-caps: normal; letter-spacing: normal; orphans: 2; text-align: center; text-indent: 0px; text-transform: none; widows: 2; word-spacing: 0px; -webkit-text-stroke-width: 0px; white-space: normal; background-color: rgb(251, 251, 251); text-decoration-thickness: initial; text-decoration-style: initial; text-decoration-color: initial;&quot;&gt;AWS Lamda&lt;/b&gt;&lt;div style=&quot;forced-color-adjust: none; color: rgb(0, 0, 0); font-family: Helvetica; font-size: 12px; font-style: normal; font-variant-ligatures: normal; font-variant-caps: normal; font-weight: 400; letter-spacing: normal; orphans: 2; text-align: center; text-indent: 0px; text-transform: none; widows: 2; word-spacing: 0px; -webkit-text-stroke-width: 0px; white-space: normal; background-color: rgb(251, 251, 251); text-decoration-thickness: initial; text-decoration-style: initial; text-decoration-color: initial;&quot;&gt;&lt;b style=&quot;forced-color-adjust: none;&quot;&gt;(UploadMedia)&lt;/b&gt;&lt;/div&gt;" style="text;whiteSpace=wrap;html=1;align=center;" parent="1" vertex="1">
          <mxGeometry x="1019" y="41" width="120" height="40" as="geometry" />
        </mxCell>
        <mxCell id="SYvAKUDs2BiALkARFRiU-27" value="" style="sketch=0;points=[[0,0,0],[0.25,0,0],[0.5,0,0],[0.75,0,0],[1,0,0],[0,1,0],[0.25,1,0],[0.5,1,0],[0.75,1,0],[1,1,0],[0,0.25,0],[0,0.5,0],[0,0.75,0],[1,0.25,0],[1,0.5,0],[1,0.75,0]];outlineConnect=0;fontColor=#232F3E;fillColor=#7AA116;strokeColor=#ffffff;dashed=0;verticalLabelPosition=bottom;verticalAlign=top;align=center;html=1;fontSize=12;fontStyle=0;aspect=fixed;shape=mxgraph.aws4.resourceIcon;resIcon=mxgraph.aws4.s3;" parent="1" vertex="1">
          <mxGeometry x="1040" y="360" width="78" height="78" as="geometry" />
        </mxCell>
        <mxCell id="SYvAKUDs2BiALkARFRiU-28" value="&lt;b&gt;Amazon S3&lt;/b&gt;" style="text;whiteSpace=wrap;html=1;align=center;" parent="1" vertex="1">
          <mxGeometry x="1080" y="384" width="150" height="30" as="geometry" />
        </mxCell>
        <mxCell id="SYvAKUDs2BiALkARFRiU-29" value="" style="sketch=0;points=[[0,0,0],[0.25,0,0],[0.5,0,0],[0.75,0,0],[1,0,0],[0,1,0],[0.25,1,0],[0.5,1,0],[0.75,1,0],[1,1,0],[0,0.25,0],[0,0.5,0],[0,0.75,0],[1,0.25,0],[1,0.5,0],[1,0.75,0]];outlineConnect=0;fontColor=#232F3E;fillColor=#E7157B;strokeColor=#ffffff;dashed=0;verticalLabelPosition=bottom;verticalAlign=top;align=center;html=1;fontSize=12;fontStyle=0;aspect=fixed;shape=mxgraph.aws4.resourceIcon;resIcon=mxgraph.aws4.sns;" parent="1" vertex="1">
          <mxGeometry x="521.5" y="480" width="78" height="78" as="geometry" />
        </mxCell>
        <mxCell id="SYvAKUDs2BiALkARFRiU-30" value="" style="endArrow=classic;html=1;rounded=0;entryX=0.5;entryY=0;entryDx=0;entryDy=0;entryPerimeter=0;exitX=0;exitY=0.5;exitDx=0;exitDy=0;exitPerimeter=0;" parent="1" source="SYvAKUDs2BiALkARFRiU-27" target="SYvAKUDs2BiALkARFRiU-29" edge="1">
          <mxGeometry relative="1" as="geometry">
            <mxPoint x="1040" y="518.9999999999998" as="sourcePoint" />
            <mxPoint x="940" y="680" as="targetPoint" />
            <Array as="points">
              <mxPoint x="560" y="400" />
            </Array>
          </mxGeometry>
        </mxCell>
        <mxCell id="SYvAKUDs2BiALkARFRiU-31" value="&lt;div&gt;&lt;span style=&quot;font-size: 14px; font-weight: 700;&quot;&gt;(5)&lt;/span&gt;&lt;span style=&quot;font-size: 14px; font-weight: 700;&quot;&gt;S3 triggers SNS topic&lt;/span&gt;&lt;/div&gt;" style="edgeLabel;resizable=0;html=1;;align=center;verticalAlign=middle;" parent="SYvAKUDs2BiALkARFRiU-30" connectable="0" vertex="1">
          <mxGeometry relative="1" as="geometry">
            <mxPoint y="-20" as="offset" />
          </mxGeometry>
        </mxCell>
        <mxCell id="SYvAKUDs2BiALkARFRiU-32" value="" style="sketch=0;points=[[0,0,0],[0.25,0,0],[0.5,0,0],[0.75,0,0],[1,0,0],[0,1,0],[0.25,1,0],[0.5,1,0],[0.75,1,0],[1,1,0],[0,0.25,0],[0,0.5,0],[0,0.75,0],[1,0.25,0],[1,0.5,0],[1,0.75,0]];outlineConnect=0;fontColor=#232F3E;fillColor=#E7157B;strokeColor=#ffffff;dashed=0;verticalLabelPosition=bottom;verticalAlign=top;align=center;html=1;fontSize=12;fontStyle=0;aspect=fixed;shape=mxgraph.aws4.resourceIcon;resIcon=mxgraph.aws4.sqs;" parent="1" vertex="1">
          <mxGeometry x="599.5" y="600" width="78" height="78" as="geometry" />
        </mxCell>
        <mxCell id="SYvAKUDs2BiALkARFRiU-33" value="" style="sketch=0;points=[[0,0,0],[0.25,0,0],[0.5,0,0],[0.75,0,0],[1,0,0],[0,1,0],[0.25,1,0],[0.5,1,0],[0.75,1,0],[1,1,0],[0,0.25,0],[0,0.5,0],[0,0.75,0],[1,0.25,0],[1,0.5,0],[1,0.75,0]];outlineConnect=0;fontColor=#232F3E;fillColor=#E7157B;strokeColor=#ffffff;dashed=0;verticalLabelPosition=bottom;verticalAlign=top;align=center;html=1;fontSize=12;fontStyle=0;aspect=fixed;shape=mxgraph.aws4.resourceIcon;resIcon=mxgraph.aws4.sqs;" parent="1" vertex="1">
          <mxGeometry x="599.5" y="720" width="78" height="78" as="geometry" />
        </mxCell>
        <mxCell id="SYvAKUDs2BiALkARFRiU-34" value="" style="sketch=0;points=[[0,0,0],[0.25,0,0],[0.5,0,0],[0.75,0,0],[1,0,0],[0,1,0],[0.25,1,0],[0.5,1,0],[0.75,1,0],[1,1,0],[0,0.25,0],[0,0.5,0],[0,0.75,0],[1,0.25,0],[1,0.5,0],[1,0.75,0]];outlineConnect=0;fontColor=#232F3E;fillColor=#E7157B;strokeColor=#ffffff;dashed=0;verticalLabelPosition=bottom;verticalAlign=top;align=center;html=1;fontSize=12;fontStyle=0;aspect=fixed;shape=mxgraph.aws4.resourceIcon;resIcon=mxgraph.aws4.sqs;" parent="1" vertex="1">
          <mxGeometry x="599.5" y="840" width="78" height="78" as="geometry" />
        </mxCell>
        <mxCell id="SYvAKUDs2BiALkARFRiU-37" value="" style="endArrow=classic;html=1;rounded=0;exitX=0.75;exitY=1;exitDx=0;exitDy=0;exitPerimeter=0;entryX=0;entryY=0.5;entryDx=0;entryDy=0;entryPerimeter=0;" parent="1" source="SYvAKUDs2BiALkARFRiU-29" target="SYvAKUDs2BiALkARFRiU-32" edge="1">
          <mxGeometry width="50" height="50" relative="1" as="geometry">
            <mxPoint x="510.5" y="700" as="sourcePoint" />
            <mxPoint x="580.5" y="640" as="targetPoint" />
            <Array as="points">
              <mxPoint x="580.5" y="639" />
            </Array>
          </mxGeometry>
        </mxCell>
        <mxCell id="SYvAKUDs2BiALkARFRiU-38" value="" style="endArrow=classic;html=1;rounded=0;entryX=0;entryY=0.5;entryDx=0;entryDy=0;entryPerimeter=0;exitX=0.5;exitY=1;exitDx=0;exitDy=0;exitPerimeter=0;" parent="1" source="SYvAKUDs2BiALkARFRiU-29" target="SYvAKUDs2BiALkARFRiU-33" edge="1">
          <mxGeometry width="50" height="50" relative="1" as="geometry">
            <mxPoint x="520.5" y="760" as="sourcePoint" />
            <mxPoint x="560.5" y="680" as="targetPoint" />
            <Array as="points">
              <mxPoint x="560.5" y="759" />
            </Array>
          </mxGeometry>
        </mxCell>
        <mxCell id="SYvAKUDs2BiALkARFRiU-41" value="" style="endArrow=classic;html=1;rounded=0;entryX=0;entryY=0.5;entryDx=0;entryDy=0;entryPerimeter=0;" parent="1" target="SYvAKUDs2BiALkARFRiU-34" edge="1">
          <mxGeometry width="50" height="50" relative="1" as="geometry">
            <mxPoint x="540.5" y="560" as="sourcePoint" />
            <mxPoint x="710.5" y="690" as="targetPoint" />
            <Array as="points">
              <mxPoint x="540.5" y="880" />
            </Array>
          </mxGeometry>
        </mxCell>
        <mxCell id="SYvAKUDs2BiALkARFRiU-42" value="&lt;span style=&quot;color: rgb(0, 0, 0); font-family: Helvetica; font-size: 14px; font-style: normal; font-variant-ligatures: normal; font-variant-caps: normal; font-weight: 700; letter-spacing: normal; orphans: 2; text-align: center; text-indent: 0px; text-transform: none; widows: 2; word-spacing: 0px; -webkit-text-stroke-width: 0px; white-space: nowrap; background-color: rgb(255, 255, 255); text-decoration-thickness: initial; text-decoration-style: initial; text-decoration-color: initial; display: inline !important; float: none;&quot;&gt;(6)Distributed to SQS&lt;/span&gt;" style="text;whiteSpace=wrap;html=1;" parent="1" vertex="1">
          <mxGeometry x="390" y="680" width="160" height="40" as="geometry" />
        </mxCell>
        <mxCell id="SYvAKUDs2BiALkARFRiU-43" value="&lt;b style=&quot;font-size: 12px;&quot;&gt;Amazon SQS&lt;/b&gt;" style="text;html=1;align=center;verticalAlign=middle;whiteSpace=wrap;rounded=0;fontSize=13.5;fontStyle=1" parent="1" vertex="1">
          <mxGeometry x="577" y="570" width="123" height="30" as="geometry" />
        </mxCell>
        <mxCell id="SYvAKUDs2BiALkARFRiU-44" value="&lt;b style=&quot;font-size: 12px;&quot;&gt;Amazon SQS&lt;/b&gt;" style="text;html=1;align=center;verticalAlign=middle;whiteSpace=wrap;rounded=0;fontSize=13.5;fontStyle=1" parent="1" vertex="1">
          <mxGeometry x="577" y="690" width="123" height="30" as="geometry" />
        </mxCell>
        <mxCell id="SYvAKUDs2BiALkARFRiU-45" value="&lt;b style=&quot;font-size: 12px;&quot;&gt;Amazon SQS&lt;/b&gt;" style="text;html=1;align=center;verticalAlign=middle;whiteSpace=wrap;rounded=0;fontSize=13.5;fontStyle=1" parent="1" vertex="1">
          <mxGeometry x="577" y="810" width="123" height="30" as="geometry" />
        </mxCell>
        <mxCell id="SYvAKUDs2BiALkARFRiU-46" value="&lt;b style=&quot;font-size: 12px;&quot;&gt;Amazon SNS&lt;/b&gt;" style="text;html=1;align=center;verticalAlign=middle;whiteSpace=wrap;rounded=0;fontSize=13.5;fontStyle=1" parent="1" vertex="1">
          <mxGeometry x="420" y="504" width="123" height="30" as="geometry" />
        </mxCell>
        <mxCell id="SYvAKUDs2BiALkARFRiU-47" value="" style="sketch=0;points=[[0,0,0],[0.25,0,0],[0.5,0,0],[0.75,0,0],[1,0,0],[0,1,0],[0.25,1,0],[0.5,1,0],[0.75,1,0],[1,1,0],[0,0.25,0],[0,0.5,0],[0,0.75,0],[1,0.25,0],[1,0.5,0],[1,0.75,0]];outlineConnect=0;fontColor=#232F3E;fillColor=#ED7100;strokeColor=#ffffff;dashed=0;verticalLabelPosition=bottom;verticalAlign=top;align=center;html=1;fontSize=12;fontStyle=0;aspect=fixed;shape=mxgraph.aws4.resourceIcon;resIcon=mxgraph.aws4.lambda;" parent="1" vertex="1">
          <mxGeometry x="920" y="600" width="78" height="78" as="geometry" />
        </mxCell>
        <mxCell id="SYvAKUDs2BiALkARFRiU-48" value="" style="sketch=0;points=[[0,0,0],[0.25,0,0],[0.5,0,0],[0.75,0,0],[1,0,0],[0,1,0],[0.25,1,0],[0.5,1,0],[0.75,1,0],[1,1,0],[0,0.25,0],[0,0.5,0],[0,0.75,0],[1,0.25,0],[1,0.5,0],[1,0.75,0]];outlineConnect=0;fontColor=#232F3E;fillColor=#ED7100;strokeColor=#ffffff;dashed=0;verticalLabelPosition=bottom;verticalAlign=top;align=center;html=1;fontSize=12;fontStyle=0;aspect=fixed;shape=mxgraph.aws4.resourceIcon;resIcon=mxgraph.aws4.lambda;" parent="1" vertex="1">
          <mxGeometry x="920" y="720" width="78" height="78" as="geometry" />
        </mxCell>
        <mxCell id="SYvAKUDs2BiALkARFRiU-49" value="" style="sketch=0;points=[[0,0,0],[0.25,0,0],[0.5,0,0],[0.75,0,0],[1,0,0],[0,1,0],[0.25,1,0],[0.5,1,0],[0.75,1,0],[1,1,0],[0,0.25,0],[0,0.5,0],[0,0.75,0],[1,0.25,0],[1,0.5,0],[1,0.75,0]];outlineConnect=0;fontColor=#232F3E;fillColor=#ED7100;strokeColor=#ffffff;dashed=0;verticalLabelPosition=bottom;verticalAlign=top;align=center;html=1;fontSize=12;fontStyle=0;aspect=fixed;shape=mxgraph.aws4.resourceIcon;resIcon=mxgraph.aws4.lambda;" parent="1" vertex="1">
          <mxGeometry x="920" y="840" width="78" height="78" as="geometry" />
        </mxCell>
        <mxCell id="SYvAKUDs2BiALkARFRiU-50" value="&lt;b style=&quot;font-size: 12px;&quot;&gt;CreateImageThumbnail&lt;/b&gt;" style="text;html=1;align=center;verticalAlign=middle;whiteSpace=wrap;rounded=0;fontSize=13.5;fontStyle=1" parent="1" vertex="1">
          <mxGeometry x="897.5" y="918" width="123" height="30" as="geometry" />
        </mxCell>
        <mxCell id="SYvAKUDs2BiALkARFRiU-51" value="&lt;b style=&quot;font-size: 12px;&quot;&gt;ResizedImage&lt;/b&gt;" style="text;html=1;align=center;verticalAlign=middle;whiteSpace=wrap;rounded=0;fontSize=13.5;fontStyle=1" parent="1" vertex="1">
          <mxGeometry x="897.5" y="798" width="123" height="30" as="geometry" />
        </mxCell>
        <mxCell id="SYvAKUDs2BiALkARFRiU-52" value="&lt;b style=&quot;font-size: 12px;&quot;&gt;IdentifyTag&lt;/b&gt;" style="text;html=1;align=center;verticalAlign=middle;whiteSpace=wrap;rounded=0;fontSize=13.5;fontStyle=1" parent="1" vertex="1">
          <mxGeometry x="897.5" y="678" width="123" height="30" as="geometry" />
        </mxCell>
        <mxCell id="SYvAKUDs2BiALkARFRiU-54" value="" style="endArrow=classic;html=1;rounded=0;exitX=1;exitY=0.5;exitDx=0;exitDy=0;exitPerimeter=0;" parent="1" source="SYvAKUDs2BiALkARFRiU-32" edge="1">
          <mxGeometry relative="1" as="geometry">
            <mxPoint x="758" y="637.89" as="sourcePoint" />
            <mxPoint x="920" y="640" as="targetPoint" />
          </mxGeometry>
        </mxCell>
        <mxCell id="SYvAKUDs2BiALkARFRiU-55" value="&lt;span style=&quot;font-size: 14px; font-weight: 700;&quot;&gt;(7a)Triggers Lamda function&lt;/span&gt;" style="edgeLabel;resizable=0;html=1;;align=center;verticalAlign=middle;" parent="SYvAKUDs2BiALkARFRiU-54" connectable="0" vertex="1">
          <mxGeometry relative="1" as="geometry">
            <mxPoint y="-10" as="offset" />
          </mxGeometry>
        </mxCell>
        <mxCell id="SYvAKUDs2BiALkARFRiU-56" value="" style="endArrow=classic;html=1;rounded=0;exitX=1;exitY=0.5;exitDx=0;exitDy=0;exitPerimeter=0;" parent="1" edge="1">
          <mxGeometry relative="1" as="geometry">
            <mxPoint x="677.5" y="758.5" as="sourcePoint" />
            <mxPoint x="919.5" y="759.5" as="targetPoint" />
          </mxGeometry>
        </mxCell>
        <mxCell id="SYvAKUDs2BiALkARFRiU-57" value="&lt;span style=&quot;font-size: 14px; font-weight: 700;&quot;&gt;(7b)Triggers Lamda function&lt;/span&gt;" style="edgeLabel;resizable=0;html=1;;align=center;verticalAlign=middle;" parent="SYvAKUDs2BiALkARFRiU-56" connectable="0" vertex="1">
          <mxGeometry relative="1" as="geometry">
            <mxPoint y="-10" as="offset" />
          </mxGeometry>
        </mxCell>
        <mxCell id="SYvAKUDs2BiALkARFRiU-58" value="" style="endArrow=classic;html=1;rounded=0;exitX=1;exitY=0.5;exitDx=0;exitDy=0;exitPerimeter=0;" parent="1" edge="1">
          <mxGeometry relative="1" as="geometry">
            <mxPoint x="678" y="878.5" as="sourcePoint" />
            <mxPoint x="920" y="879.5" as="targetPoint" />
          </mxGeometry>
        </mxCell>
        <mxCell id="SYvAKUDs2BiALkARFRiU-59" value="&lt;span style=&quot;font-size: 14px; font-weight: 700;&quot;&gt;(7c)Triggers Lamda function&lt;/span&gt;" style="edgeLabel;resizable=0;html=1;;align=center;verticalAlign=middle;" parent="SYvAKUDs2BiALkARFRiU-58" connectable="0" vertex="1">
          <mxGeometry relative="1" as="geometry">
            <mxPoint y="-10" as="offset" />
          </mxGeometry>
        </mxCell>
        <mxCell id="SYvAKUDs2BiALkARFRiU-60" value="" style="sketch=0;points=[[0,0,0],[0.25,0,0],[0.5,0,0],[0.75,0,0],[1,0,0],[0,1,0],[0.25,1,0],[0.5,1,0],[0.75,1,0],[1,1,0],[0,0.25,0],[0,0.5,0],[0,0.75,0],[1,0.25,0],[1,0.5,0],[1,0.75,0]];outlineConnect=0;fontColor=#232F3E;fillColor=#01A88D;strokeColor=#ffffff;dashed=0;verticalLabelPosition=bottom;verticalAlign=top;align=center;html=1;fontSize=12;fontStyle=0;aspect=fixed;shape=mxgraph.aws4.resourceIcon;resIcon=mxgraph.aws4.rekognition_2;" parent="1" vertex="1">
          <mxGeometry x="920" y="438" width="78" height="78" as="geometry" />
        </mxCell>
        <mxCell id="SYvAKUDs2BiALkARFRiU-64" value="&lt;b style=&quot;font-size: 12px;&quot;&gt;AWS&amp;nbsp;Rekognition&amp;nbsp;&lt;/b&gt;" style="text;html=1;align=center;verticalAlign=middle;whiteSpace=wrap;rounded=0;fontSize=13.5;fontStyle=1" parent="1" vertex="1">
          <mxGeometry x="897.5" y="414" width="123" height="30" as="geometry" />
        </mxCell>
        <mxCell id="SYvAKUDs2BiALkARFRiU-67" value="" style="endArrow=classic;startArrow=classic;html=1;rounded=0;" parent="1" edge="1">
          <mxGeometry width="50" height="50" relative="1" as="geometry">
            <mxPoint x="960" y="600" as="sourcePoint" />
            <mxPoint x="960" y="520" as="targetPoint" />
          </mxGeometry>
        </mxCell>
        <mxCell id="SYvAKUDs2BiALkARFRiU-69" value="" style="endArrow=classic;html=1;rounded=0;" parent="1" edge="1">
          <mxGeometry width="50" height="50" relative="1" as="geometry">
            <mxPoint x="1000" y="630" as="sourcePoint" />
            <mxPoint x="1060" y="440" as="targetPoint" />
            <Array as="points">
              <mxPoint x="1060" y="630" />
            </Array>
          </mxGeometry>
        </mxCell>
        <mxCell id="SYvAKUDs2BiALkARFRiU-70" value="" style="endArrow=classic;html=1;rounded=0;" parent="1" edge="1">
          <mxGeometry width="50" height="50" relative="1" as="geometry">
            <mxPoint x="1000" y="760" as="sourcePoint" />
            <mxPoint x="1080" y="440" as="targetPoint" />
            <Array as="points">
              <mxPoint x="1080" y="760" />
            </Array>
          </mxGeometry>
        </mxCell>
        <mxCell id="SYvAKUDs2BiALkARFRiU-71" value="" style="endArrow=classic;html=1;rounded=0;" parent="1" edge="1">
          <mxGeometry width="50" height="50" relative="1" as="geometry">
            <mxPoint x="1000" y="878" as="sourcePoint" />
            <mxPoint x="1100" y="438" as="targetPoint" />
            <Array as="points">
              <mxPoint x="1100" y="878" />
            </Array>
          </mxGeometry>
        </mxCell>
        <mxCell id="SYvAKUDs2BiALkARFRiU-72" value="" style="endArrow=classic;html=1;rounded=0;" parent="1" edge="1">
          <mxGeometry width="50" height="50" relative="1" as="geometry">
            <mxPoint x="1000" y="650" as="sourcePoint" />
            <mxPoint x="1390" y="160" as="targetPoint" />
            <Array as="points">
              <mxPoint x="1390" y="650" />
            </Array>
          </mxGeometry>
        </mxCell>
        <mxCell id="SYvAKUDs2BiALkARFRiU-73" value="&lt;span style=&quot;font-size: 14px; font-weight: 700; background-color: rgb(255, 255, 255);&quot;&gt;(8)Rekognition for labeling&lt;/span&gt;" style="text;html=1;align=center;verticalAlign=middle;resizable=0;points=[];autosize=1;strokeColor=none;fillColor=none;" parent="1" vertex="1">
          <mxGeometry x="840" y="548" width="200" height="30" as="geometry" />
        </mxCell>
        <mxCell id="SYvAKUDs2BiALkARFRiU-75" value="&lt;span style=&quot;color: rgb(0, 0, 0); font-family: Helvetica; font-size: 14px; font-style: normal; font-variant-ligatures: normal; font-variant-caps: normal; font-weight: 700; letter-spacing: normal; orphans: 2; text-align: center; text-indent: 0px; text-transform: none; widows: 2; word-spacing: 0px; -webkit-text-stroke-width: 0px; white-space: nowrap; background-color: rgb(255, 255, 255); text-decoration-thickness: initial; text-decoration-style: initial; text-decoration-color: initial; display: inline !important; float: none;&quot;&gt;(9)Insert tag to database&lt;/span&gt;" style="text;whiteSpace=wrap;html=1;" parent="1" vertex="1">
          <mxGeometry x="1190" y="619" width="180" height="40" as="geometry" />
        </mxCell>
      </root>
    </mxGraphModel>
  </diagram>
</mxfile>
